<?xml version="1.0" standalone="no"?>
<svg viewBox="0 0 200 200" xmlns="http://www.w3.org/2000/svg">
  <path fill="#0F62FE" d="M42.3,-78.6C51.6,-67.8,53.8,-50.1,57.6,-35.8C61.4,-21.6,66.7,-10.8,71.7,2.9C76.8,16.6,81.6,33.2,75.9,44.1C70.1,55,53.9,60.2,39.5,67.1C25.1,74.1,12.6,82.8,-1.4,85.2C-15.3,87.5,-30.6,83.5,-42.3,75C-53.9,66.4,-62,53.4,-65,40.2C-68.1,27,-66.1,13.5,-66.7,-0.4C-67.3,-14.2,-70.5,-28.4,-67.3,-41.4C-64.2,-54.4,-54.7,-66.3,-42.4,-75.4C-30.1,-84.5,-15,-90.9,0.7,-92.1C16.5,-93.4,32.9,-89.5,42.3,-78.6Z" transform="translate(100 100)" />
</svg>
